<mxfile host="65bd71144e">
    <diagram id="5bf3sSo5Uf4EVB69YqOx" name="Page-1">
        <mxGraphModel dx="584" dy="329" grid="1" gridSize="10" guides="1" tooltips="1" connect="1" arrows="1" fold="1" page="1" pageScale="1" pageWidth="1169" pageHeight="827" math="0" shadow="0">
            <root>
                <mxCell id="0"/>
                <mxCell id="1" parent="0"/>
                <mxCell id="3" value="/start" style="text;html=1;align=center;verticalAlign=middle;whiteSpace=wrap;rounded=0;labelBackgroundColor=#99FFFF;" vertex="1" parent="1">
                    <mxGeometry width="60" height="30" as="geometry"/>
                </mxCell>
                <mxCell id="5" value="/login&amp;nbsp;&lt;div&gt;&amp;amp;&amp;nbsp;&lt;span style=&quot;&quot;&gt;/logout&lt;/span&gt;&lt;/div&gt;" style="text;html=1;align=center;verticalAlign=middle;whiteSpace=wrap;rounded=0;labelBackgroundColor=#FF66FF;" vertex="1" parent="1">
                    <mxGeometry y="50" width="60" height="30" as="geometry"/>
                </mxCell>
                <mxCell id="6" value="/new_note&amp;nbsp;&lt;div&gt;/edit_note&lt;/div&gt;&lt;div&gt;/delete_note&lt;/div&gt;" style="text;html=1;align=center;verticalAlign=middle;whiteSpace=wrap;rounded=0;labelBackgroundColor=light-dark(#28b82b, #ededed);" vertex="1" parent="1">
                    <mxGeometry x="10" y="100" width="60" height="60" as="geometry"/>
                </mxCell>
                <mxCell id="7" value="/start" style="text;html=1;align=center;verticalAlign=middle;whiteSpace=wrap;rounded=0;" vertex="1" parent="1">
                    <mxGeometry x="629" y="120" width="60" height="30" as="geometry"/>
                </mxCell>
                <mxCell id="8" value="/search_in_note" style="text;html=1;align=center;verticalAlign=middle;whiteSpace=wrap;rounded=0;labelBackgroundColor=#FFCCE6;" vertex="1" parent="1">
                    <mxGeometry x="20" y="170" width="60" height="30" as="geometry"/>
                </mxCell>
                <mxCell id="9" value="/start" style="text;html=1;align=center;verticalAlign=middle;whiteSpace=wrap;rounded=0;" vertex="1" parent="1">
                    <mxGeometry x="549" y="120" width="60" height="30" as="geometry"/>
                </mxCell>
                <mxCell id="13" value="&lt;font style=&quot;font-size: 10px;&quot;&gt;Show the current information about this account and notes&lt;/font&gt;" style="rounded=0;whiteSpace=wrap;html=1;" vertex="1" parent="1">
                    <mxGeometry x="70" y="5" width="340" height="20" as="geometry"/>
                </mxCell>
                <mxCell id="14" value="&lt;font style=&quot;font-size: 10px;&quot;&gt;allow me to create new account, or login in tthis same account, or login on behalf of another account by giving username or id password&lt;/font&gt;" style="rounded=0;whiteSpace=wrap;html=1;" vertex="1" parent="1">
                    <mxGeometry x="70" y="40" width="340" height="40" as="geometry"/>
                </mxCell>
            </root>
        </mxGraphModel>
    </diagram>
</mxfile>